HIERARCHY
ROOT Pelvis
{
	OFFSET 0.000000 0.000000 0.000000
	CHANNELS 6 Xposition Yposition Zposition Xrotation Yrotation Zrotation
	JOINT LeftUpLeg_virtual
	{
		OFFSET 0.000000 0.000000 0.000000
		CHANNELS 3 Xrotation Yrotation Zrotation
		JOINT LeftUpLeg
		{
			OFFSET 18.735201 -5.666702 -4.541200
			CHANNELS 3 Xrotation Yrotation Zrotation
			JOINT LeftLeg
			{
				OFFSET -0.021200 -31.938179 0.493100
				CHANNELS 3 Xrotation Yrotation Zrotation
				JOINT LeftFoot
				{
					OFFSET 0.021200 -31.938179 -4.336299
					CHANNELS 3 Xrotation Yrotation Zrotation
					JOINT LeftToeBase
					{
						OFFSET 0.943001 -26.722000 15.023500
						CHANNELS 3 Xrotation Yrotation Zrotation
						End Site
						{
							OFFSET 0 0 0
						}
					}
				}
			}
		}
	}
	JOINT RightUpLeg_virtual
	{
		OFFSET 0.000000 0.000000 0.000000
		CHANNELS 3 Xrotation Yrotation Zrotation
		JOINT RightUpLeg
		{
			OFFSET -18.735201 -5.666702 -4.541200
			CHANNELS 3 Xrotation Yrotation Zrotation
			JOINT RightLeg
			{
				OFFSET 0.018946 -31.938133 0.493100
				CHANNELS 3 Xrotation Yrotation Zrotation
				JOINT RightFoot
				{
					OFFSET -0.018946 -31.938126 -4.336299
					CHANNELS 3 Xrotation Yrotation Zrotation
					JOINT RightToeBase
					{
						OFFSET -0.943001 -26.722004 15.023500
						CHANNELS 3 Xrotation Yrotation Zrotation
						End Site
						{
							OFFSET 0 0 0
						}
					}
				}
			}
		}
	}
	JOINT Hips_virtual
	{
		OFFSET 0.000000 0.000000 0.000000
		CHANNELS 3 Xrotation Yrotation Zrotation
		JOINT Hips
		{
			OFFSET -0.000000 -0.000000 -0.000000
			CHANNELS 3 Xrotation Yrotation Zrotation
			JOINT Spine
			{
				OFFSET 0.000000 10.199997 -0.299500
				CHANNELS 3 Xrotation Yrotation Zrotation
				JOINT Spine1
				{
					OFFSET 0.000000 11.900002 -1.516600
					CHANNELS 3 Xrotation Yrotation Zrotation
					JOINT Spine2
					{
						OFFSET 0.000000 13.600006 -2.842500
						CHANNELS 3 Xrotation Yrotation Zrotation
						JOINT Neck_virtual
						{
							OFFSET 0.000000 0.000000 0.000000
							CHANNELS 3 Xrotation Yrotation Zrotation
							JOINT Neck
							{
								OFFSET 0.000000 9.624100 -2.890100
								CHANNELS 3 Xrotation Yrotation Zrotation
								JOINT Head
								{
									OFFSET 0.000000 14.068802 -1.351900
									CHANNELS 3 Xrotation Yrotation Zrotation
									End Site
									{
										OFFSET 0 0 0
									}
								}
							}
						}
						JOINT LeftShoulder_virtual
						{
							OFFSET 0.000000 0.000000 0.000000
							CHANNELS 3 Xrotation Yrotation Zrotation
							JOINT LeftShoulder
							{
								OFFSET 15.263000 10.923401 -0.547700
								CHANNELS 3 Xrotation Yrotation Zrotation
								JOINT LeftArm
								{
									OFFSET 25.438599 -2.830597 -13.032500
									CHANNELS 3 Xrotation Yrotation Zrotation
									JOINT LeftForeArm
									{
										OFFSET 29.960503 0.000000 0.000000
										CHANNELS 3 Xrotation Yrotation Zrotation
										JOINT LeftHand
										{
											OFFSET 27.849251 0.000000 0.000000
											CHANNELS 3 Xrotation Yrotation Zrotation
											End Site
											{
												OFFSET 0 0 0
											}
										}
									}
								}
							}
						}
						JOINT RightShoulder_virtual
						{
							OFFSET 0.000000 0.000000 0.000000
							CHANNELS 3 Xrotation Yrotation Zrotation
							JOINT RightShoulder
							{
								OFFSET -15.263000 10.923401 -0.547700
								CHANNELS 3 Xrotation Yrotation Zrotation
								JOINT RightArm
								{
									OFFSET -25.438599 -2.830597 -13.032500
									CHANNELS 3 Xrotation Yrotation Zrotation
									JOINT RightForeArm
									{
										OFFSET -29.960503 0.000000 0.000000
										CHANNELS 3 Xrotation Yrotation Zrotation
										JOINT RightHand
										{
											OFFSET -27.849251 0.000000 0.000000
											CHANNELS 3 Xrotation Yrotation Zrotation
											End Site
											{
												OFFSET 0 0 0
											}
										}
									}
								}
							}
						}
					}
				}
			}
		}
	}
}
MOTION
Frames: 11
Frame Time: 0.03333333
54.403847 74.562637 224.918442 0.000000 0.000000 0.000000 2.176448 26.421709 -13.574303 -30.744437 17.406302 -3.977920 95.519110 10.886664 1.065648 22.065927 5.101238 25.034177 0.000000 0.000000 0.000000 2.176448 26.421709 -13.574303 -55.899972 7.112391 -6.551326 51.799649 9.657936 0.223315 -2.673449 2.069803 22.028470 0.000000 0.000000 0.000000 2.176448 26.421709 -13.574303 0.000000 0.000000 0.000000 2.290732 -7.049337 -2.304903 2.171914 -3.807848 1.397096 0.000000 0.000000 0.000000 2.111296 -3.874990 1.334496 0.859879 1.311020 0.113989 0.000000 0.000000 0.000000 2.111296 -3.874990 1.334496 0.543621 -1.205992 -9.510702 18.985860 -16.238959 -51.504141 -0.000039 -80.003338 -0.000036 0.000000 0.000000 0.000000 2.111296 -3.874990 1.334496 0.640669 -6.488261 9.965686 34.769802 13.168153 44.617770 -179.999950 84.495546 179.999950 0.000000 0.000000 0.000000 
60.545910 75.078407 235.820251 0.000000 0.000000 0.000000 1.084066 27.893106 -14.602820 -58.712368 17.835043 3.123708 107.230275 12.363271 0.994901 21.348520 3.549359 26.139020 0.000000 0.000000 0.000000 1.084066 27.893106 -14.602820 -46.254745 7.170141 -5.184745 62.983872 10.274578 0.452752 -21.798069 -1.519179 17.755529 0.000000 0.000000 0.000000 1.084066 27.893106 -14.602820 0.000000 0.000000 0.000000 4.381678 -2.604825 -1.832596 3.685481 -1.692998 1.426703 0.000000 0.000000 0.000000 3.657013 -1.820091 1.396210 0.346643 0.991196 0.316290 0.000000 0.000000 0.000000 3.657013 -1.820091 1.396210 0.537710 -0.925231 -8.721430 28.704785 -17.140804 -55.244349 0.000030 -63.812012 0.000039 0.000000 0.000000 0.000000 3.657013 -1.820091 1.396210 0.815847 -4.239264 12.335985 15.586522 20.224388 47.923298 -179.999254 87.388357 179.999322 0.000000 0.000000 0.000000 
67.686615 74.833549 246.921097 0.000000 0.000000 0.000000 0.003170 28.500004 -15.655840 -81.695032 15.112965 6.514896 106.479500 13.247260 0.938769 21.953334 3.255978 25.802430 0.000000 0.000000 0.000000 0.003170 28.500004 -15.655840 -31.722021 5.638375 -3.921723 65.837819 10.018648 0.711945 -36.915209 -2.230749 11.451688 0.000000 0.000000 0.000000 0.003170 28.500004 -15.655840 0.000000 0.000000 0.000000 5.609473 1.074046 -0.449327 4.651098 0.654913 1.633860 0.000000 0.000000 0.000000 4.657232 0.491974 1.673785 0.161280 0.708941 0.371003 0.000000 0.000000 0.000000 4.657232 0.491974 1.673785 0.472290 0.823559 -6.563500 41.287049 -17.715619 -58.148706 0.000016 -58.979831 0.000023 0.000000 0.000000 0.000000 4.657232 0.491974 1.673785 0.625962 0.265411 11.021711 -6.297833 23.802338 54.826912 -179.999978 83.353060 -179.999964 0.000000 0.000000 0.000000 
67.686615 74.833549 246.921097 0.000000 0.000000 0.000000 0.003170 28.500004 -15.655840 -81.695032 15.112965 6.514896 106.479500 13.247260 0.938769 21.953334 3.255978 25.802430 0.000000 0.000000 0.000000 0.003170 28.500004 -15.655840 -31.722021 5.638375 -3.921723 65.837819 10.018648 0.711945 -36.915209 -2.230749 11.451688 0.000000 0.000000 0.000000 0.003170 28.500004 -15.655840 0.000000 0.000000 0.000000 5.609473 1.074046 -0.449327 4.651098 0.654913 1.633860 0.000000 0.000000 0.000000 4.657232 0.491974 1.673785 0.161280 0.708941 0.371003 0.000000 0.000000 0.000000 4.657232 0.491974 1.673785 0.472290 0.823559 -6.563500 41.287049 -17.715619 -58.148706 0.000016 -58.979831 0.000023 0.000000 0.000000 0.000000 4.657232 0.491974 1.673785 0.625962 0.265411 11.021711 -6.297833 23.802338 54.826912 -179.999978 83.353060 -179.999964 0.000000 0.000000 0.000000 
67.686615 74.833549 246.921097 0.000000 0.000000 0.000000 0.003170 28.500004 -15.655840 -81.695032 15.112965 6.514896 106.479500 13.247260 0.938769 21.953334 3.255978 25.802430 0.000000 0.000000 0.000000 0.003170 28.500004 -15.655840 -31.722021 5.638375 -3.921723 65.837819 10.018648 0.711945 -36.915209 -2.230749 11.451688 0.000000 0.000000 0.000000 0.003170 28.500004 -15.655840 0.000000 0.000000 0.000000 5.609473 1.074046 -0.449327 4.651098 0.654913 1.633860 0.000000 0.000000 0.000000 4.657232 0.491974 1.673785 0.161280 0.708941 0.371003 0.000000 0.000000 0.000000 4.657232 0.491974 1.673785 0.472290 0.823559 -6.563500 41.287049 -17.715619 -58.148706 0.000016 -58.979831 0.000023 0.000000 0.000000 0.000000 4.657232 0.491974 1.673785 0.625962 0.265411 11.021711 -6.297833 23.802338 54.826912 -179.999978 83.353060 -179.999964 0.000000 0.000000 0.000000 
67.686615 74.833549 246.921097 0.000000 0.000000 0.000000 0.003170 28.500004 -15.655840 -81.695032 15.112965 6.514896 106.479500 13.247260 0.938769 21.953334 3.255978 25.802430 0.000000 0.000000 0.000000 0.003170 28.500004 -15.655840 -31.722021 5.638375 -3.921723 65.837819 10.018648 0.711945 -36.915209 -2.230749 11.451688 0.000000 0.000000 0.000000 0.003170 28.500004 -15.655840 0.000000 0.000000 0.000000 5.609473 1.074046 -0.449327 4.651098 0.654913 1.633860 0.000000 0.000000 0.000000 4.657232 0.491974 1.673785 0.161280 0.708941 0.371003 0.000000 0.000000 0.000000 4.657232 0.491974 1.673785 0.472290 0.823559 -6.563500 41.287049 -17.715619 -58.148706 0.000016 -58.979831 0.000023 0.000000 0.000000 0.000000 4.657232 0.491974 1.673785 0.625962 0.265411 11.021711 -6.297833 23.802338 54.826912 -179.999978 83.353060 -179.999964 0.000000 0.000000 0.000000 
67.686615 74.833549 246.921097 0.000000 0.000000 0.000000 0.003170 28.500004 -15.655840 -81.695032 15.112965 6.514896 106.479500 13.247260 0.938769 21.953334 3.255978 25.802430 0.000000 0.000000 0.000000 0.003170 28.500004 -15.655840 -31.722021 5.638375 -3.921723 65.837819 10.018648 0.711945 -36.915209 -2.230749 11.451688 0.000000 0.000000 0.000000 0.003170 28.500004 -15.655840 0.000000 0.000000 0.000000 5.609473 1.074046 -0.449327 4.651098 0.654913 1.633860 0.000000 0.000000 0.000000 4.657232 0.491974 1.673785 0.161280 0.708941 0.371003 0.000000 0.000000 0.000000 4.657232 0.491974 1.673785 0.472290 0.823559 -6.563500 41.287049 -17.715619 -58.148706 0.000016 -58.979831 0.000023 0.000000 0.000000 0.000000 4.657232 0.491974 1.673785 0.625962 0.265411 11.021711 -6.297833 23.802338 54.826912 -179.999978 83.353060 -179.999964 0.000000 0.000000 0.000000 
67.686615 74.833549 246.921097 0.000000 0.000000 0.000000 0.003170 28.500004 -15.655840 -81.695032 15.112965 6.514896 106.479500 13.247260 0.938769 21.953334 3.255978 25.802430 0.000000 0.000000 0.000000 0.003170 28.500004 -15.655840 -31.722021 5.638375 -3.921723 65.837819 10.018648 0.711945 -36.915209 -2.230749 11.451688 0.000000 0.000000 0.000000 0.003170 28.500004 -15.655840 0.000000 0.000000 0.000000 5.609473 1.074046 -0.449327 4.651098 0.654913 1.633860 0.000000 0.000000 0.000000 4.657232 0.491974 1.673785 0.161280 0.708941 0.371003 0.000000 0.000000 0.000000 4.657232 0.491974 1.673785 0.472290 0.823559 -6.563500 41.287049 -17.715619 -58.148706 0.000016 -58.979831 0.000023 0.000000 0.000000 0.000000 4.657232 0.491974 1.673785 0.625962 0.265411 11.021711 -6.297833 23.802338 54.826912 -179.999978 83.353060 -179.999964 0.000000 0.000000 0.000000 
67.686615 74.833549 246.921097 0.000000 0.000000 0.000000 0.003170 28.500004 -15.655840 -81.695032 15.112965 6.514896 106.479500 13.247260 0.938769 21.953334 3.255978 25.802430 0.000000 0.000000 0.000000 0.003170 28.500004 -15.655840 -31.722021 5.638375 -3.921723 65.837819 10.018648 0.711945 -36.915209 -2.230749 11.451688 0.000000 0.000000 0.000000 0.003170 28.500004 -15.655840 0.000000 0.000000 0.000000 5.609473 1.074046 -0.449327 4.651098 0.654913 1.633860 0.000000 0.000000 0.000000 4.657232 0.491974 1.673785 0.161280 0.708941 0.371003 0.000000 0.000000 0.000000 4.657232 0.491974 1.673785 0.472290 0.823559 -6.563500 41.287049 -17.715619 -58.148706 0.000016 -58.979831 0.000023 0.000000 0.000000 0.000000 4.657232 0.491974 1.673785 0.625962 0.265411 11.021711 -6.297833 23.802338 54.826912 -179.999978 83.353060 -179.999964 0.000000 0.000000 0.000000 
67.686615 74.833549 246.921097 0.000000 0.000000 0.000000 0.003170 28.500004 -15.655840 -81.695032 15.112965 6.514896 106.479500 13.247260 0.938769 21.953334 3.255978 25.802430 0.000000 0.000000 0.000000 0.003170 28.500004 -15.655840 -31.722021 5.638375 -3.921723 65.837819 10.018648 0.711945 -36.915209 -2.230749 11.451688 0.000000 0.000000 0.000000 0.003170 28.500004 -15.655840 0.000000 0.000000 0.000000 5.609473 1.074046 -0.449327 4.651098 0.654913 1.633860 0.000000 0.000000 0.000000 4.657232 0.491974 1.673785 0.161280 0.708941 0.371003 0.000000 0.000000 0.000000 4.657232 0.491974 1.673785 0.472290 0.823559 -6.563500 41.287049 -17.715619 -58.148706 0.000016 -58.979831 0.000023 0.000000 0.000000 0.000000 4.657232 0.491974 1.673785 0.625962 0.265411 11.021711 -6.297833 23.802338 54.826912 -179.999978 83.353060 -179.999964 0.000000 0.000000 0.000000 
67.686615 74.833549 246.921097 0.000000 0.000000 0.000000 0.003170 28.500004 -15.655840 -81.695032 15.112965 6.514896 106.479500 13.247260 0.938769 21.953334 3.255978 25.802430 0.000000 0.000000 0.000000 0.003170 28.500004 -15.655840 -31.722021 5.638375 -3.921723 65.837819 10.018648 0.711945 -36.915209 -2.230749 11.451688 0.000000 0.000000 0.000000 0.003170 28.500004 -15.655840 0.000000 0.000000 0.000000 5.609473 1.074046 -0.449327 4.651098 0.654913 1.633860 0.000000 0.000000 0.000000 4.657232 0.491974 1.673785 0.161280 0.708941 0.371003 0.000000 0.000000 0.000000 4.657232 0.491974 1.673785 0.472290 0.823559 -6.563500 41.287049 -17.715619 -58.148706 0.000016 -58.979831 0.000023 0.000000 0.000000 0.000000 4.657232 0.491974 1.673785 0.625962 0.265411 11.021711 -6.297833 23.802338 54.826912 -179.999978 83.353060 -179.999964 0.000000 0.000000 0.000000 
